# xmcd
#
# Track frame offsets:
#	150
#	12572
#	22464
#	38205
#	49778
#	61967
#	79698
#	89867
#	100665
#	113118
#	126155
# Disc length: 1890 seconds
# Revision: 1
# Processed by: cddbd v1.5.2PL0 Copyright (c) Steve Scherf et al.
#
# Submitted via: libkcddb 0.31
#
DISCID=9607600b
DTITLE=Homesick James - The Country Blues
DYEAR=1972
DGENRE=Blues
TTITLE0=Set A Day
TTITLE1=Go Away, Go Away Blues
TTITLE2=Alligator Man
TTITLE3=Been' Round A Long Time
TTITLE4=No More Lovin'
TTITLE5=All Alone
TTITLE6=Homesick Blues
TTITLE7=Telephone
TTITLE8=I Got To Move
TTITLE9=Workin' With Homesick
TTITLE10=Unlucky
EXTD=
EXTT0=
EXTT1=
EXTT2=
EXTT3=
EXTT4=
EXTT5=
EXTT6=
EXTT7=
EXTT8=
EXTT9=
EXTT10=
PLAYORDER=
